<?xml version="1.0" encoding="UTF-8" standalone="no"?>
<svg width="20px" height="17px" viewBox="0 0 20 17" version="1.1" xmlns="http://www.w3.org/2000/svg" xmlns:xlink="http://www.w3.org/1999/xlink">
    <!-- Generator: Sketch 3.8.1 (29687) - http://www.bohemiancoding.com/sketch -->
    <title>Fill 2186 + Fill 2187 + Fill 2188 Copy</title>
    <desc>Created with Sketch.</desc>
    <defs>
        <path d="M1.49312944,16.2606266 C0.799768347,16.2606266 0.367778978,15.5280787 0.717000636,14.9447273 L9.31685623,0.586505526 C9.66389979,0.00739670867 10.5227963,0.00739670867 10.8691138,0.586505526 L19.4696954,14.9447273 C19.8189171,15.5280787 19.3869277,16.2606266 18.6935666,16.2606266 L1.49312944,16.2606266 Z" id="path-1"></path>
        <mask id="mask-2" maskContentUnits="userSpaceOnUse" maskUnits="objectBoundingBox" x="0" y="0" width="19" height="16.1084527" fill="white">
            <use xlink:href="#path-1"></use>
        </mask>
    </defs>
    <g id="Recarga" stroke="none" stroke-width="1" fill="none" fill-rule="evenodd">
        <g id="cash_in:pse:1" transform="translate(-280.000000, -104.000000)">
            <g id="Group" transform="translate(8.000000, 88.000000)">
                <g id="Fill-2186-+-Fill-2187-+-Fill-2188-Copy" transform="translate(272.000000, 16.000000)">
                    <use id="Fill-2186" stroke="#FF585F" mask="url(#mask-2)" stroke-width="2" xlink:href="#path-1"></use>
                    <path d="M9.28571429,10.7932609 L9.28571429,5.64369565 C9.28571429,5.28837565 9.62171429,5 10.0357143,5 C10.4497143,5 10.7857143,5.28837565 10.7857143,5.64369565 L10.7857143,10.7932609 C10.7857143,11.1485809 10.4497143,11.4369565 10.0357143,11.4369565 C9.62171429,11.4369565 9.28571429,11.1485809 9.28571429,10.7932609 Z" id="Fill-2187" fill="#FF585F"></path>
                    <path d="M10.0857143,14.0789565 C9.87771429,14.0789565 9.66971429,13.9932522 9.51771429,13.8530087 C9.37371429,13.7049739 9.28571429,13.5024 9.28571429,13.2998261 C9.28571429,13.0972522 9.37371429,12.8946783 9.51771429,12.7466435 C9.82171429,12.4583652 10.3497143,12.4583652 10.6537143,12.7466435 C10.7977143,12.8946783 10.8857143,13.0972522 10.8857143,13.2998261 C10.8857143,13.5024 10.7977143,13.7049739 10.6537143,13.8530087 C10.5017143,13.9932522 10.3017143,14.0789565 10.0857143,14.0789565" id="Fill-2188" fill="#FF585F"></path>
                </g>
            </g>
        </g>
    </g>
</svg>