<?xml version="1.0" encoding="UTF-8" standalone="no"?>
<svg width="208px" height="210px" viewBox="0 0 208 210" version="1.1" xmlns="http://www.w3.org/2000/svg" xmlns:xlink="http://www.w3.org/1999/xlink">
    <!-- Generator: Sketch 40.1 (33804) - http://www.bohemiancoding.com/sketch -->
    <title>Rectangle 86 Copy + Line + Realizado + ¡Hecho!</title>
    <desc>Created with Sketch.</desc>
    <defs></defs>
    <g id="Page-1" stroke="none" stroke-width="1" fill="none" fill-rule="evenodd">
        <g id="alerta_1" transform="translate(-59.000000, -131.000000)">
            <g id="Group-2" transform="translate(19.000000, 131.000000)">
                <g id="Rectangle-86-Copy-+-Line-+-Realizado-+-¡Hecho!" transform="translate(40.000000, 0.000000)">
                    <g id="Rectangle-86-Copy-+-Line-+-Realizado" opacity="0.949999988">
                        <path d="M1.53746762,101.255652 L100.291312,1.55225097 C102.339564,-0.515695412 105.657026,-0.519137849 107.708688,1.55225097 L206.462532,101.255652 C208.510784,103.323598 208.514194,106.672959 206.462532,108.744348 L107.708688,208.447749 C105.660436,210.515695 102.342974,210.519138 100.291312,208.447749 L1.53746762,108.744348 C-0.510784027,106.676402 -0.514193679,103.327041 1.53746762,101.255652 Z" id="Rectangle-86-Copy" fill="#A8E5EB"></path>
                        <polyline id="Line" stroke="#FFFFFF" stroke-width="6" stroke-linecap="round" stroke-linejoin="round" points="68.9042969 95.5157932 92.8724188 120.678223 138.904297 68.6782227"></polyline>
                    </g>
                    <path d="M63.88,155.536 L63.88,147.52 L62.296,147.52 L62.296,155.536 L63.88,155.536 Z M64.168,145.168 C64.168,144.608 63.704,144.112 63.096,144.112 C62.504,144.112 62.024,144.592 62.024,145.152 C62.024,145.728 62.488,146.208 63.096,146.208 C63.704,146.208 64.168,145.744 64.168,145.168 L64.168,145.168 Z M68.744,149.216 L74.12,149.216 L75.272,152 L77.064,152 L72.2,140.672 L70.76,140.672 L65.848,152 L67.608,152 L68.744,149.216 Z M71.432,142.512 L73.544,147.824 L69.304,147.824 L71.432,142.512 Z M79.944,150.864 L79.992,150.864 C80.552,151.712 81.592,152.208 82.664,152.208 C85,152.208 86.488,150.416 86.488,148.192 C86.488,145.952 84.952,144.208 82.696,144.208 C81.448,144.208 80.456,144.8 79.96,145.6 L79.912,145.6 L79.912,144.416 L78.44,144.416 L78.44,155.84 L79.944,155.84 L79.944,150.864 Z M84.936,148.192 C84.936,149.616 84.056,150.944 82.408,150.944 C80.872,150.944 79.848,149.664 79.848,148.208 C79.848,146.752 80.872,145.456 82.408,145.456 C84.056,145.456 84.936,146.768 84.936,148.192 L84.936,148.192 Z M88.584,146.048 L88.584,152 L90.088,152 L90.088,148.016 C90.088,146.752 90.776,145.584 92.216,145.584 C92.456,145.584 92.712,145.616 92.904,145.664 L92.968,144.272 C92.792,144.224 92.584,144.208 92.376,144.208 C91.352,144.208 90.472,144.816 90.056,145.696 L90.008,145.696 C90.008,145.376 89.976,144.8 89.944,144.416 L88.52,144.416 C88.568,144.912 88.584,145.648 88.584,146.048 L88.584,146.048 Z M101.768,148.192 C101.768,145.856 99.992,144.208 97.672,144.208 C95.352,144.208 93.592,145.856 93.592,148.192 C93.592,150.528 95.352,152.208 97.672,152.208 C99.992,152.208 101.768,150.528 101.768,148.192 L101.768,148.192 Z M100.2,148.192 C100.2,149.632 99.304,150.944 97.672,150.944 C96.056,150.944 95.144,149.632 95.144,148.192 C95.144,146.752 96.056,145.456 97.672,145.456 C99.304,145.456 100.2,146.752 100.2,148.192 L100.2,148.192 Z M105.368,150.8 C105.96,151.712 107.032,152.208 108.104,152.208 C110.44,152.208 111.928,150.416 111.928,148.192 C111.928,145.952 110.392,144.208 108.136,144.208 C106.888,144.208 105.944,144.816 105.432,145.552 L105.384,145.552 L105.384,139.904 L103.88,139.904 L103.88,152 L105.336,152 L105.336,150.8 L105.368,150.8 Z M110.376,148.192 C110.376,149.616 109.496,150.944 107.848,150.944 C106.312,150.944 105.288,149.664 105.288,148.208 C105.288,146.752 106.312,145.456 107.848,145.456 C109.496,145.456 110.376,146.768 110.376,148.192 L110.376,148.192 Z M118.744,147.296 C116.184,147.296 113.464,147.568 113.464,149.856 C113.464,151.6 115.016,152.192 116.216,152.192 C117.352,152.192 118.216,151.728 118.76,150.912 L118.808,150.912 C118.808,151.264 118.856,151.664 118.936,152 L120.296,152 C120.216,151.632 120.184,151.008 120.184,150.496 L120.184,147.184 C120.184,145.504 119.192,144.208 117.016,144.208 C115.784,144.208 114.648,144.64 113.912,145.344 L114.712,146.304 C115.224,145.792 116.024,145.424 116.872,145.424 C117.992,145.424 118.744,145.968 118.744,147.088 L118.744,147.296 Z M118.744,148.384 L118.744,148.784 C118.744,150.064 117.96,151.008 116.552,151.008 C115.8,151.008 115,150.72 115,149.824 C115,148.544 116.888,148.384 118.376,148.384 L118.744,148.384 Z M128.744,150.8 L128.776,150.8 L128.776,152 L130.232,152 L130.232,139.904 L128.728,139.904 L128.728,145.552 L128.696,145.552 C128.168,144.816 127.224,144.208 125.992,144.208 C123.72,144.208 122.184,145.952 122.184,148.192 C122.184,150.416 123.672,152.208 126.008,152.208 C127.08,152.208 128.168,151.712 128.744,150.8 L128.744,150.8 Z M123.752,148.192 C123.752,146.768 124.616,145.456 126.264,145.456 C127.8,145.456 128.824,146.752 128.824,148.208 C128.824,149.664 127.8,150.944 126.264,150.944 C124.616,150.944 123.752,149.616 123.752,148.192 L123.752,148.192 Z M137.576,147.296 C135.016,147.296 132.296,147.568 132.296,149.856 C132.296,151.6 133.848,152.192 135.048,152.192 C136.184,152.192 137.048,151.728 137.592,150.912 L137.64,150.912 C137.64,151.264 137.688,151.664 137.768,152 L139.128,152 C139.048,151.632 139.016,151.008 139.016,150.496 L139.016,147.184 C139.016,145.504 138.024,144.208 135.848,144.208 C134.616,144.208 133.48,144.64 132.744,145.344 L133.544,146.304 C134.056,145.792 134.856,145.424 135.704,145.424 C136.824,145.424 137.576,145.968 137.576,147.088 L137.576,147.296 Z M137.576,148.384 L137.576,148.784 C137.576,150.064 136.792,151.008 135.384,151.008 C134.632,151.008 133.832,150.72 133.832,149.824 C133.832,148.544 135.72,148.384 137.208,148.384 L137.576,148.384 Z M143.688,140.672 L142.104,140.672 L142.104,148.688 L143.688,148.688 L143.688,140.672 Z M143.976,151.04 C143.976,150.464 143.512,150 142.904,150 C142.296,150 141.832,150.48 141.832,151.056 C141.832,151.616 142.312,152.096 142.904,152.096 C143.512,152.096 143.976,151.6 143.976,151.04 L143.976,151.04 Z" id="¡Aprobada!" fill="#28ABB6"></path>
                </g>
            </g>
        </g>
    </g>
</svg>