<?xml version="1.0" encoding="UTF-8" standalone="no"?>
<svg width="208px" height="210px" viewBox="0 0 208 210" version="1.1" xmlns="http://www.w3.org/2000/svg" xmlns:xlink="http://www.w3.org/1999/xlink">
    <!-- Generator: Sketch 39.1 (31720) - http://www.bohemiancoding.com/sketch -->
    <title>Rectangle 86 Copy + Line + Realizado + ¡Hecho! + Line + Line</title>
    <desc>Created with Sketch.</desc>
    <defs></defs>
    <g id="Recarga" stroke="none" stroke-width="1" fill="none" fill-rule="evenodd">
        <g id="cash_in:pse:1-copy-2" transform="translate(-56.000000, -86.000000)">
            <g id="Rectangle-86-Copy-+-Line-+-Realizado-+-¡Hecho!-+-Line-+-Line" transform="translate(56.000000, 86.000000)">
                <g id="Rectangle-86-Copy-+-Line-+-Realizado" opacity="0.949999988" fill="#FF585F">
                    <path d="M1.53746762,101.255652 L100.291312,1.55225097 C102.339564,-0.515695412 105.657026,-0.519137849 107.708688,1.55225097 L206.462532,101.255652 C208.510784,103.323598 208.514194,106.672959 206.462532,108.744348 L107.708688,208.447749 C105.660436,210.515695 102.342974,210.519138 100.291312,208.447749 L1.53746762,108.744348 C-0.510784027,106.676402 -0.514193679,103.327041 1.53746762,101.255652 Z" id="Rectangle-86-Copy"></path>
                </g>
                <path d="M76.968,155.536 L76.968,147.52 L75.384,147.52 L75.384,155.536 L76.968,155.536 Z M77.256,145.168 C77.256,144.608 76.792,144.112 76.184,144.112 C75.592,144.112 75.112,144.592 75.112,145.152 C75.112,145.728 75.576,146.208 76.184,146.208 C76.792,146.208 77.256,145.744 77.256,145.168 L77.256,145.168 Z M81.816,146.944 L86.952,146.944 L86.952,145.584 L81.816,145.584 L81.816,142.064 L87.304,142.064 L87.304,140.672 L80.232,140.672 L80.232,152 L81.816,152 L81.816,146.944 Z M93.192,147.296 C90.632,147.296 87.912,147.568 87.912,149.856 C87.912,151.6 89.464,152.192 90.664,152.192 C91.8,152.192 92.664,151.728 93.208,150.912 L93.256,150.912 C93.256,151.264 93.304,151.664 93.384,152 L94.744,152 C94.664,151.632 94.632,151.008 94.632,150.496 L94.632,147.184 C94.632,145.504 93.64,144.208 91.464,144.208 C90.232,144.208 89.096,144.64 88.36,145.344 L89.16,146.304 C89.672,145.792 90.472,145.424 91.32,145.424 C92.44,145.424 93.192,145.968 93.192,147.088 L93.192,147.296 Z M93.192,148.384 L93.192,148.784 C93.192,150.064 92.408,151.008 91,151.008 C90.248,151.008 89.448,150.72 89.448,149.824 C89.448,148.544 91.336,148.384 92.824,148.384 L93.192,148.384 Z M98.68,139.904 L97.176,139.904 L97.176,152 L98.68,152 L98.68,139.904 Z M102.84,139.904 L101.336,139.904 L101.336,152 L102.84,152 L102.84,139.904 Z M106.984,144.416 L105.48,144.416 L105.48,152 L106.984,152 L106.984,144.416 Z M107.24,141.68 C107.24,141.12 106.776,140.704 106.232,140.704 C105.688,140.704 105.24,141.136 105.24,141.68 C105.24,142.208 105.688,142.64 106.232,142.64 C106.776,142.64 107.24,142.224 107.24,141.68 L107.24,141.68 Z M115.656,150.8 L115.688,150.8 L115.688,152 L117.144,152 L117.144,139.904 L115.64,139.904 L115.64,145.552 L115.608,145.552 C115.08,144.816 114.136,144.208 112.904,144.208 C110.632,144.208 109.096,145.952 109.096,148.192 C109.096,150.416 110.584,152.208 112.92,152.208 C113.992,152.208 115.08,151.712 115.656,150.8 L115.656,150.8 Z M110.664,148.192 C110.664,146.768 111.528,145.456 113.176,145.456 C114.712,145.456 115.736,146.752 115.736,148.208 C115.736,149.664 114.712,150.944 113.176,150.944 C111.528,150.944 110.664,149.616 110.664,148.192 L110.664,148.192 Z M124.488,147.296 C121.928,147.296 119.208,147.568 119.208,149.856 C119.208,151.6 120.76,152.192 121.96,152.192 C123.096,152.192 123.96,151.728 124.504,150.912 L124.552,150.912 C124.552,151.264 124.6,151.664 124.68,152 L126.04,152 C125.96,151.632 125.928,151.008 125.928,150.496 L125.928,147.184 C125.928,145.504 124.936,144.208 122.76,144.208 C121.528,144.208 120.392,144.64 119.656,145.344 L120.456,146.304 C120.968,145.792 121.768,145.424 122.616,145.424 C123.736,145.424 124.488,145.968 124.488,147.088 L124.488,147.296 Z M124.488,148.384 L124.488,148.784 C124.488,150.064 123.704,151.008 122.296,151.008 C121.544,151.008 120.744,150.72 120.744,149.824 C120.744,148.544 122.632,148.384 124.12,148.384 L124.488,148.384 Z M130.6,140.672 L129.016,140.672 L129.016,148.688 L130.6,148.688 L130.6,140.672 Z M130.888,151.04 C130.888,150.464 130.424,150 129.816,150 C129.208,150 128.744,150.48 128.744,151.056 C128.744,151.616 129.224,152.096 129.816,152.096 C130.424,152.096 130.888,151.6 130.888,151.04 L130.888,151.04 Z" id="¡Fallida!" fill="#FFFFFF"></path>
                <g id="Line-+-Line" transform="translate(77.500000, 61.000000)" stroke="#FFFFFF" stroke-width="6" stroke-linecap="round" stroke-linejoin="round">
                    <path d="M0.716216216,0.716216216 L51.5726111,51.5726111" id="Line"></path>
                    <path d="M0.716216216,52.2837838 L51.5726111,1.42738889" id="Line"></path>
                </g>
            </g>
        </g>
    </g>
</svg>