<?xml version="1.0" encoding="UTF-8" standalone="no"?>
<svg width="208px" height="210px" viewBox="0 0 208 210" version="1.1" xmlns="http://www.w3.org/2000/svg" xmlns:xlink="http://www.w3.org/1999/xlink">
    <!-- Generator: Sketch 39.1 (31720) - http://www.bohemiancoding.com/sketch -->
    <title>Rectangle 86 Copy + Line + Realizado + ¡Hecho!</title>
    <desc>Created with Sketch.</desc>
    <defs></defs>
    <g id="Recarga" stroke="none" stroke-width="1" fill="none" fill-rule="evenodd">
        <g id="cash_in:pse:1-copy" transform="translate(-56.000000, -116.000000)">
            <g id="Rectangle-86-Copy-+-Line-+-Realizado-+-¡Hecho!" transform="translate(56.000000, 116.000000)">
                <g id="Rectangle-86-Copy-+-Line-+-Realizado" opacity="0.949999988">
                    <path d="M1.53746762,101.255652 L100.291312,1.55225097 C102.339564,-0.515695412 105.657026,-0.519137849 107.708688,1.55225097 L206.462532,101.255652 C208.510784,103.323598 208.514194,106.672959 206.462532,108.744348 L107.708688,208.447749 C105.660436,210.515695 102.342974,210.519138 100.291312,208.447749 L1.53746762,108.744348 C-0.510784027,106.676402 -0.514193679,103.327041 1.53746762,101.255652 Z" id="Rectangle-86-Copy" fill="#4376FF"></path>
                    <path d="M103,111.444527 L103.62563,45" id="Line" stroke="#FFFFFF" stroke-width="6" stroke-linecap="round" stroke-linejoin="round"></path>
                    <circle id="Oval" fill="#FFFFFF" cx="103" cy="124" r="3"></circle>
                </g>
                <path d="M64.024,155.536 L64.024,147.52 L62.44,147.52 L62.44,155.536 L64.024,155.536 Z M64.312,145.168 C64.312,144.608 63.848,144.112 63.24,144.112 C62.648,144.112 62.168,144.592 62.168,145.152 C62.168,145.728 62.632,146.208 63.24,146.208 C63.848,146.208 64.312,145.744 64.312,145.168 L64.312,145.168 Z M67.288,152 L68.872,152 L68.872,147.024 L70.664,147.024 C73.016,147.024 74.792,146.096 74.792,143.824 C74.792,141.616 73.192,140.672 70.744,140.672 L67.288,140.672 L67.288,152 Z M68.872,142.016 L70.584,142.016 C72.072,142.016 73.192,142.464 73.192,143.824 C73.192,145.168 72.104,145.68 70.552,145.68 L68.872,145.68 L68.872,142.016 Z M76.728,147.536 C76.824,146.352 77.816,145.392 79.112,145.392 C80.504,145.392 81.208,146.336 81.24,147.536 L76.728,147.536 Z M82.76,148.144 C82.76,145.728 81.352,144.208 79.112,144.208 C76.888,144.208 75.192,145.856 75.192,148.224 C75.192,150.608 76.888,152.208 79.192,152.208 C80.536,152.208 81.64,151.712 82.456,150.656 L81.4,149.808 C80.968,150.448 80.216,150.96 79.192,150.96 C77.864,150.96 76.776,149.952 76.728,148.656 L82.744,148.656 C82.76,148.48 82.76,148.304 82.76,148.144 L82.76,148.144 Z M84.792,144.416 C84.84,144.912 84.856,145.648 84.856,146.048 L84.856,152 L86.36,152 L86.36,147.968 C86.36,146.464 87.208,145.472 88.392,145.472 C89.784,145.472 90.12,146.56 90.12,147.792 L90.12,152 L91.624,152 L91.624,147.296 C91.624,145.6 90.744,144.208 88.792,144.208 C87.704,144.208 86.696,144.848 86.328,145.664 L86.28,145.664 C86.28,145.344 86.248,144.8 86.216,144.416 L84.792,144.416 Z M100.216,150.8 L100.248,150.8 L100.248,152 L101.704,152 L101.704,139.904 L100.2,139.904 L100.2,145.552 L100.168,145.552 C99.64,144.816 98.696,144.208 97.464,144.208 C95.192,144.208 93.656,145.952 93.656,148.192 C93.656,150.416 95.144,152.208 97.48,152.208 C98.552,152.208 99.64,151.712 100.216,150.8 L100.216,150.8 Z M95.224,148.192 C95.224,146.768 96.088,145.456 97.736,145.456 C99.272,145.456 100.296,146.752 100.296,148.208 C100.296,149.664 99.272,150.944 97.736,150.944 C96.088,150.944 95.224,149.616 95.224,148.192 L95.224,148.192 Z M105.848,144.416 L104.344,144.416 L104.344,152 L105.848,152 L105.848,144.416 Z M106.104,141.68 C106.104,141.12 105.64,140.704 105.096,140.704 C104.552,140.704 104.104,141.136 104.104,141.68 C104.104,142.208 104.552,142.64 105.096,142.64 C105.64,142.64 106.104,142.224 106.104,141.68 L106.104,141.68 Z M109.512,147.536 C109.608,146.352 110.6,145.392 111.896,145.392 C113.288,145.392 113.992,146.336 114.024,147.536 L109.512,147.536 Z M115.544,148.144 C115.544,145.728 114.136,144.208 111.896,144.208 C109.672,144.208 107.976,145.856 107.976,148.224 C107.976,150.608 109.672,152.208 111.976,152.208 C113.32,152.208 114.424,151.712 115.24,150.656 L114.184,149.808 C113.752,150.448 113,150.96 111.976,150.96 C110.648,150.96 109.56,149.952 109.512,148.656 L115.528,148.656 C115.544,148.48 115.544,148.304 115.544,148.144 L115.544,148.144 Z M117.576,144.416 C117.624,144.912 117.64,145.648 117.64,146.048 L117.64,152 L119.144,152 L119.144,147.968 C119.144,146.464 119.992,145.472 121.176,145.472 C122.568,145.472 122.904,146.56 122.904,147.792 L122.904,152 L124.408,152 L124.408,147.296 C124.408,145.6 123.528,144.208 121.576,144.208 C120.488,144.208 119.48,144.848 119.112,145.664 L119.064,145.664 C119.064,145.344 119.032,144.8 119,144.416 L117.576,144.416 Z M130.664,144.416 L128.648,144.416 L128.648,142.24 L127.16,142.24 L127.16,144.416 L125.704,144.416 L125.704,145.648 L127.16,145.648 L127.16,149.76 C127.16,151.328 127.944,152.128 129.368,152.128 C129.832,152.128 130.296,152.048 130.648,151.92 L130.6,150.688 C130.344,150.816 129.992,150.88 129.72,150.88 C128.968,150.88 128.648,150.512 128.648,149.6 L128.648,145.648 L130.664,145.648 L130.664,144.416 Z M133.256,147.536 C133.352,146.352 134.344,145.392 135.64,145.392 C137.032,145.392 137.736,146.336 137.768,147.536 L133.256,147.536 Z M139.288,148.144 C139.288,145.728 137.88,144.208 135.64,144.208 C133.416,144.208 131.72,145.856 131.72,148.224 C131.72,150.608 133.416,152.208 135.72,152.208 C137.064,152.208 138.168,151.712 138.984,150.656 L137.928,149.808 C137.496,150.448 136.744,150.96 135.72,150.96 C134.392,150.96 133.304,149.952 133.256,148.656 L139.272,148.656 C139.288,148.48 139.288,148.304 139.288,148.144 L139.288,148.144 Z M143.544,140.672 L141.96,140.672 L141.96,148.688 L143.544,148.688 L143.544,140.672 Z M143.832,151.04 C143.832,150.464 143.368,150 142.76,150 C142.152,150 141.688,150.48 141.688,151.056 C141.688,151.616 142.168,152.096 142.76,152.096 C143.368,152.096 143.832,151.6 143.832,151.04 L143.832,151.04 Z" id="¡Pendiente!" fill="#FFFFFF"></path>
            </g>
        </g>
    </g>
</svg>