<?xml version="1.0" encoding="UTF-8" standalone="no"?>
<svg width="208px" height="210px" viewBox="0 0 208 210" version="1.1" xmlns="http://www.w3.org/2000/svg" xmlns:xlink="http://www.w3.org/1999/xlink">
    <!-- Generator: Sketch 39.1 (31720) - http://www.bohemiancoding.com/sketch -->
    <title>Rectangle 86 Copy + Line + Realizado + ¡Hecho! + Line + Line</title>
    <desc>Created with Sketch.</desc>
    <defs></defs>
    <g id="Recarga" stroke="none" stroke-width="1" fill="none" fill-rule="evenodd">
        <g id="cash_in:pse:1" transform="translate(-56.000000, -116.000000)">
            <g id="Rectangle-86-Copy-+-Line-+-Realizado-+-¡Hecho!-+-Line-+-Line" transform="translate(56.000000, 116.000000)">
                <g id="Rectangle-86-Copy-+-Line-+-Realizado" opacity="0.949999988" fill="#FF585F">
                    <path d="M1.53746762,101.255652 L100.291312,1.55225097 C102.339564,-0.515695412 105.657026,-0.519137849 107.708688,1.55225097 L206.462532,101.255652 C208.510784,103.323598 208.514194,106.672959 206.462532,108.744348 L107.708688,208.447749 C105.660436,210.515695 102.342974,210.519138 100.291312,208.447749 L1.53746762,108.744348 C-0.510784027,106.676402 -0.514193679,103.327041 1.53746762,101.255652 Z" id="Rectangle-86-Copy"></path>
                </g>
                <path d="M61.304,155.536 L61.304,147.52 L59.72,147.52 L59.72,155.536 L61.304,155.536 Z M61.592,145.168 C61.592,144.608 61.128,144.112 60.52,144.112 C59.928,144.112 59.448,144.592 59.448,145.152 C59.448,145.728 59.912,146.208 60.52,146.208 C61.128,146.208 61.592,145.744 61.592,145.168 L61.592,145.168 Z M66.152,146.96 L67.848,146.96 L70.728,152 L72.648,152 L69.48,146.8 C71.096,146.528 72.232,145.472 72.232,143.808 C72.232,141.504 70.392,140.672 68.2,140.672 L64.568,140.672 L64.568,152 L66.152,152 L66.152,146.96 Z M66.152,142.016 L68.088,142.016 C69.464,142.016 70.632,142.448 70.632,143.808 C70.632,145.168 69.464,145.632 67.976,145.632 L66.152,145.632 L66.152,142.016 Z M75.16,147.536 C75.256,146.352 76.248,145.392 77.544,145.392 C78.936,145.392 79.64,146.336 79.672,147.536 L75.16,147.536 Z M81.192,148.144 C81.192,145.728 79.784,144.208 77.544,144.208 C75.32,144.208 73.624,145.856 73.624,148.224 C73.624,150.608 75.32,152.208 77.624,152.208 C78.968,152.208 80.072,151.712 80.888,150.656 L79.832,149.808 C79.4,150.448 78.648,150.96 77.624,150.96 C76.296,150.96 75.208,149.952 75.16,148.656 L81.176,148.656 C81.192,148.48 81.192,148.304 81.192,148.144 L81.192,148.144 Z M89.688,145.456 C89.064,144.64 87.912,144.208 86.84,144.208 C84.52,144.208 82.792,145.824 82.792,148.208 C82.792,150.624 84.536,152.208 86.872,152.208 C88.088,152.208 89.064,151.76 89.704,151.024 L88.696,150.112 C88.296,150.624 87.64,150.944 86.872,150.944 C85.288,150.944 84.376,149.648 84.376,148.208 C84.376,146.752 85.288,145.472 86.856,145.472 C87.576,145.472 88.28,145.84 88.6,146.336 L89.688,145.456 Z M92.728,145.568 L92.728,139.904 L91.224,139.904 L91.224,152 L92.728,152 L92.728,147.984 C92.728,146.48 93.592,145.488 94.776,145.488 C96.168,145.488 96.488,146.576 96.488,147.808 L96.488,152 L97.992,152 L97.992,147.296 C97.992,145.6 97.112,144.208 95.16,144.208 C94.072,144.208 93.112,144.816 92.76,145.568 L92.728,145.568 Z M105.256,147.296 C102.696,147.296 99.976,147.568 99.976,149.856 C99.976,151.6 101.528,152.192 102.728,152.192 C103.864,152.192 104.728,151.728 105.272,150.912 L105.32,150.912 C105.32,151.264 105.368,151.664 105.448,152 L106.808,152 C106.728,151.632 106.696,151.008 106.696,150.496 L106.696,147.184 C106.696,145.504 105.704,144.208 103.528,144.208 C102.296,144.208 101.16,144.64 100.424,145.344 L101.224,146.304 C101.736,145.792 102.536,145.424 103.384,145.424 C104.504,145.424 105.256,145.968 105.256,147.088 L105.256,147.296 Z M105.256,148.384 L105.256,148.784 C105.256,150.064 104.472,151.008 103.064,151.008 C102.312,151.008 101.512,150.72 101.512,149.824 C101.512,148.544 103.4,148.384 104.888,148.384 L105.256,148.384 Z M114.616,144.416 L108.648,144.416 L108.648,145.648 L112.728,145.648 L108.44,150.768 L108.44,152 L114.792,152 L114.792,150.736 L110.296,150.736 L114.616,145.648 L114.616,144.416 Z M121.32,147.296 C118.76,147.296 116.04,147.568 116.04,149.856 C116.04,151.6 117.592,152.192 118.792,152.192 C119.928,152.192 120.792,151.728 121.336,150.912 L121.384,150.912 C121.384,151.264 121.432,151.664 121.512,152 L122.872,152 C122.792,151.632 122.76,151.008 122.76,150.496 L122.76,147.184 C122.76,145.504 121.768,144.208 119.592,144.208 C118.36,144.208 117.224,144.64 116.488,145.344 L117.288,146.304 C117.8,145.792 118.6,145.424 119.448,145.424 C120.568,145.424 121.32,145.968 121.32,147.088 L121.32,147.296 Z M121.32,148.384 L121.32,148.784 C121.32,150.064 120.536,151.008 119.128,151.008 C118.376,151.008 117.576,150.72 117.576,149.824 C117.576,148.544 119.464,148.384 120.952,148.384 L121.32,148.384 Z M131.32,150.8 L131.352,150.8 L131.352,152 L132.808,152 L132.808,139.904 L131.304,139.904 L131.304,145.552 L131.272,145.552 C130.744,144.816 129.8,144.208 128.568,144.208 C126.296,144.208 124.76,145.952 124.76,148.192 C124.76,150.416 126.248,152.208 128.584,152.208 C129.656,152.208 130.744,151.712 131.32,150.8 L131.32,150.8 Z M126.328,148.192 C126.328,146.768 127.192,145.456 128.84,145.456 C130.376,145.456 131.4,146.752 131.4,148.208 C131.4,149.664 130.376,150.944 128.84,150.944 C127.192,150.944 126.328,149.616 126.328,148.192 L126.328,148.192 Z M140.152,147.296 C137.592,147.296 134.872,147.568 134.872,149.856 C134.872,151.6 136.424,152.192 137.624,152.192 C138.76,152.192 139.624,151.728 140.168,150.912 L140.216,150.912 C140.216,151.264 140.264,151.664 140.344,152 L141.704,152 C141.624,151.632 141.592,151.008 141.592,150.496 L141.592,147.184 C141.592,145.504 140.6,144.208 138.424,144.208 C137.192,144.208 136.056,144.64 135.32,145.344 L136.12,146.304 C136.632,145.792 137.432,145.424 138.28,145.424 C139.4,145.424 140.152,145.968 140.152,147.088 L140.152,147.296 Z M140.152,148.384 L140.152,148.784 C140.152,150.064 139.368,151.008 137.96,151.008 C137.208,151.008 136.408,150.72 136.408,149.824 C136.408,148.544 138.296,148.384 139.784,148.384 L140.152,148.384 Z M146.264,140.672 L144.68,140.672 L144.68,148.688 L146.264,148.688 L146.264,140.672 Z M146.552,151.04 C146.552,150.464 146.088,150 145.48,150 C144.872,150 144.408,150.48 144.408,151.056 C144.408,151.616 144.888,152.096 145.48,152.096 C146.088,152.096 146.552,151.6 146.552,151.04 L146.552,151.04 Z" id="¡Rechazada!" fill="#FFFFFF"></path>
                <g id="Line-+-Line" transform="translate(77.500000, 61.000000)" stroke="#FFFFFF" stroke-width="6" stroke-linecap="round" stroke-linejoin="round">
                    <path d="M0.716216216,0.716216216 L51.5726111,51.5726111" id="Line"></path>
                    <path d="M0.716216216,52.2837838 L51.5726111,1.42738889" id="Line"></path>
                </g>
            </g>
        </g>
    </g>
</svg>